<?xml version="1.0" ?><svg height="512" preserveAspectRatio="xMidYMid" viewBox="0 0 512 512" width="512" xmlns="http://www.w3.org/2000/svg" xmlns:xlink="http://www.w3.org/1999/xlink"><defs><style>
      .cls-1 {
        fill: #000;
        fill-rule: evenodd;
      }
    </style></defs><path class="cls-1" d="M256.000,512.000 C114.615,512.000 0.000,397.385 0.000,256.000 C0.000,114.615 114.615,0.000 256.000,0.000 C397.385,0.000 512.000,114.615 512.000,256.000 C512.000,397.385 397.385,512.000 256.000,512.000 ZM255.995,128.000 C185.303,128.000 127.995,185.308 127.995,256.000 C127.995,326.692 185.303,384.000 255.995,384.000 C326.688,384.000 383.995,326.692 383.995,256.000 C383.995,185.308 326.688,128.000 255.995,128.000 ZM292.375,298.256 C281.115,298.256 272.970,292.506 271.772,279.809 L271.293,279.809 C263.866,292.027 253.086,298.256 240.388,298.256 C224.816,298.256 213.556,286.756 213.556,267.112 C213.556,237.884 235.118,211.292 269.616,211.292 C280.157,211.292 292.135,213.927 298.125,217.281 L290.937,261.601 C288.542,275.736 290.219,282.204 296.927,282.444 C307.228,282.684 320.165,269.507 320.165,241.957 C320.165,210.813 300.041,186.616 262.908,186.616 C226.254,186.616 194.151,215.365 194.151,261.122 C194.151,301.131 219.785,323.890 255.481,323.890 C267.699,323.890 280.636,321.255 290.219,316.463 L294.531,330.118 C280.157,336.827 267.699,338.743 250.690,338.743 C210.921,338.743 175.944,310.234 175.944,263.279 C175.944,214.406 211.400,172.002 265.543,172.002 C307.708,172.002 337.893,200.990 337.893,241.238 C337.893,276.216 318.249,298.256 292.375,298.256 ZM265.783,230.217 C249.971,230.217 237.513,245.790 237.513,264.237 C237.513,273.340 241.586,279.090 249.492,279.090 C258.356,279.090 267.699,267.831 269.855,253.935 L273.209,231.176 C271.293,230.697 268.897,230.217 265.783,230.217 Z"/></svg>